<svg width="31" height="30" viewBox="0 0 31 30" fill="none" xmlns="http://www.w3.org/2000/svg">
<path d="M11.775 3.55576L5.0375 8.80673C3.9125 9.68189 3 11.5447 3 12.9575V22.2217C3 25.1222 5.3625 27.4977 8.2625 27.4977H22.7375C25.6375 27.4977 28 25.1222 28 22.2342V13.1325C28 11.6197 26.9875 9.68189 25.75 8.81923L18.025 3.40574C16.275 2.18051 13.4625 2.24302 11.775 3.55576Z" stroke="#171717" stroke-width="1.5" stroke-linecap="round" stroke-linejoin="round"/>
<path d="M13.625 22.5099H17.375C19.4375 22.5099 21.125 20.8221 21.125 18.7592V15.0085C21.125 12.9456 19.4375 11.2578 17.375 11.2578H13.625C11.5625 11.2578 9.875 12.9456 9.875 15.0085V18.7592C9.875 20.8221 11.5625 22.5099 13.625 22.5099Z" stroke="#171717" stroke-width="1.5" stroke-linecap="round" stroke-linejoin="round"/>
<path d="M15.5 11.2578V22.5099" stroke="#171717" stroke-width="1.5" stroke-linecap="round" stroke-linejoin="round"/>
<path d="M9.875 16.8828H21.125" stroke="#171717" stroke-width="1.5" stroke-linecap="round" stroke-linejoin="round"/>
</svg>
