<svg width="31" height="31" viewBox="0 0 31 31" fill="none" xmlns="http://www.w3.org/2000/svg">
<path d="M23.5883 21.0526L24.0758 25.0033C24.2008 26.041 23.0883 26.7661 22.2008 26.2285L16.9633 23.1155C16.3883 23.1155 15.8258 23.078 15.2758 23.003C16.2008 21.9153 16.7508 20.54 16.7508 19.0522C16.7508 15.5016 13.6758 12.6261 9.87579 12.6261C8.42579 12.6261 7.08829 13.0387 5.97579 13.7638C5.93829 13.4512 5.92578 13.1387 5.92578 12.8136C5.92578 7.12505 10.8633 2.51172 16.9633 2.51172C23.0633 2.51172 28.0008 7.12505 28.0008 12.8136C28.0008 16.1892 26.2633 19.1773 23.5883 21.0526Z" stroke="black" stroke-width="1.5" stroke-linecap="round" stroke-linejoin="round"/>
<path d="M16.75 19.0511C16.75 20.5389 16.2 21.9142 15.275 23.0019C14.0375 24.5022 12.075 25.4648 9.875 25.4648L6.6125 27.4026C6.0625 27.7402 5.3625 27.2776 5.4375 26.64L5.75 24.1771C4.075 23.0144 3 21.1515 3 19.0511C3 16.8507 4.17501 14.9129 5.97501 13.7627C7.08751 13.0375 8.425 12.625 9.875 12.625C13.675 12.625 16.75 15.5005 16.75 19.0511Z" stroke="black" stroke-width="1.5" stroke-linecap="round" stroke-linejoin="round"/>
</svg>
